<svg height="512" viewBox="0 0 512 512" width="512" xmlns="http://www.w3.org/2000/svg"><g id="Virus"><g id="Outline"><path d="m232 46.629v18.04c0 10.576 16 10.592 16 0v-24.669a8 8 0 0 0 -8-8c-10.588 0-10.575-16 0-16h32c10.588 0 10.575 16 0 16a8 8 0 0 0 -8 8v24.669a8 8 0 0 0 7.342 7.973 183.951 183.951 0 0 1 30.664 5.167c10.4 2.672 14.112-12.889 3.988-15.5a200.143 200.143 0 0 0 -25.994-4.87v-10.81c25.356-8.991 18.805-46.629-8-46.629h-32c-26.8 0-33.365 37.635-8 46.629z"/><path d="m355.661 101.315a185.528 185.528 0 0 1 19.139 14.192 8 8 0 0 0 10.825-.449l17.45-17.45a8 8 0 0 0 0-11.314c-7.5-7.5 3.909-18.716 11.314-11.314 21.483 22.5 24.971 22.57 24.971 28.285a8.014 8.014 0 0 1 -13.657 5.657 8 8 0 0 0 -11.314 0l-17.45 17.45a8.009 8.009 0 0 0 5.657 13.656c5.536 0 6.969-4.541 18.419-15.1 24.285 11.572 46.275-19.678 27.318-38.634-19.145-17.108-23.984-29.657-39.6-29.657a24.018 24.018 0 0 0 -21.658 34.345l-7.653 7.653c-4.862-3.818-9.914-7.423-15.084-10.761-8.884-5.737-17.575 7.695-8.677 13.441z"/><path d="m465.371 232h-18.04c-10.576 0-10.592 16 0 16h24.669a8 8 0 0 0 8-8c0-10.588 16-10.575 16 0v32c0 10.588-16 10.575-16 0a8 8 0 0 0 -8-8h-24.669a8 8 0 0 0 -7.973 7.342 182.491 182.491 0 0 1 -42.865 103.458 8 8 0 0 0 .449 10.825l17.45 17.45a8 8 0 0 0 11.314 0 8.015 8.015 0 0 1 13.657 5.657c0 5.731-3.628 5.936-24.971 28.284-7.476 7.48-18.807-3.823-11.314-11.313a8 8 0 0 0 0-11.314l-17.45-17.45c-7.478-7.478-18.8 3.825-11.313 11.314l12.754 12.754c-11.7 24.445 19.949 46.01 38.637 27.323l22.627-22.627c18.54-18.538-2.708-50.354-27.315-38.629l-7.65-7.65a198.138 198.138 0 0 0 41.195-99.424h10.808c8.991 25.356 46.629 18.805 46.629-8v-32c0-26.795-37.634-33.367-46.629-8z"/><path d="m280 465.371v-18.04c0-10.576-16-10.592-16 0v24.669a8 8 0 0 0 8 8c10.588 0 10.575 16 0 16h-32c-10.588 0-10.575-16 0-16a8 8 0 0 0 8-8v-24.669a8 8 0 0 0 -7.342-7.973 182.5 182.5 0 0 1 -103.458-42.865 8 8 0 0 0 -10.825.449c-15.818 16.77-19.793 17.48-19.793 23.107 0 5.73 4.686 5.585 4.686 11.313a8.015 8.015 0 0 1 -13.657 5.658l-22.631-22.628c-7.5-7.5 3.929-18.7 11.314-11.314a8 8 0 0 0 11.314 0l17.45-17.45c7.479-7.477-3.824-18.8-11.314-11.313l-12.762 12.762a24.019 24.019 0 0 0 -34.345 21.658c0 15.623 12.547 20.451 29.657 39.6 18.84 18.838 50.27-3.028 38.637-27.323l7.643-7.642a198.135 198.135 0 0 0 99.426 41.193v10.808c-25.356 8.991-18.8 46.629 8 46.629h32a24 24 0 0 0 8-46.629z"/><path d="m64.669 264h-24.669a8 8 0 0 0 -8 8c0 10.588-16 10.575-16 0v-32c0-10.588 16-10.575 16 0a8 8 0 0 0 8 8h24.669a8 8 0 0 0 7.973-7.342 182.491 182.491 0 0 1 42.865-103.458 8 8 0 0 0 -.449-10.825l-17.45-17.45a8 8 0 0 0 -11.314 0c-7.482 7.482-18.8-3.83-11.314-11.314l22.628-22.631c7.488-7.488 18.707 3.919 11.314 11.314a8 8 0 0 0 0 11.314l17.45 17.45c7.478 7.478 18.8-3.825 11.313-11.314l-12.762-12.762c11.577-24.282-19.673-46.272-38.629-27.315l-22.627 22.627c-19.03 19.029 3.143 50.213 27.323 38.637l7.642 7.642a198.138 198.138 0 0 0 -41.195 99.427h-10.808c-8.991-25.356-46.629-18.8-46.629 8v32c0 26.8 37.635 33.365 46.629 8h18.04c10.576 0 10.592-16 0-16z"/><path d="m304 256c0-44.108-56-59.313-56-40a8 8 0 0 0 8 8 32 32 0 1 1 -31.36 25.592c2.106-10.37-13.573-13.564-15.68-3.184a48 48 0 1 0 95.04 9.592z"/><path d="m256.737 128.483c-7.184 20.453 7.288 44.228 32.259 53 23.544 8.27 50.651.637 58.316-21.186 3.6-10.262 2-21.532-4.523-31.733-20.504-32.073-74.435-33.158-86.052-.081zm62.071 38.593c-7.4 2.507-16.107 2.261-24.51-.69-31.9-11.2-30.945-46.4 1.759-46.4 33.082.001 51.843 37.241 22.751 47.09z"/><path d="m202.122 404.7a57.476 57.476 0 0 0 19 3.3c50.68 0 55.826-60.36 7.058-77.488-9.977-3.509-15.3 11.586-5.3 15.1 26.023 9.14 32.159 36.861 9.058 44.683-24.074 8.151-53.818-13.809-46.976-33.291a8 8 0 0 0 -4.9-10.2c-17.207-6.039-21.362 42.649 22.06 57.896z"/><path d="m446.651 166.709c-23.767-34.538-65.158-27.195-62.681 9.144l-12.505 8.6c-8.71 5.993.343 19.186 9.07 13.18 11.818-9.436 21.371-11.138 19.842-19.407-6.437-34.775 39.856-13.678 40.325 18.086.245 16.754-14.657 16.41-26.882 5.323-6.985-6.339-17.334 2.659-11.959 10.457-1.914 2-16 7.391-9.777 16.438a7.991 7.991 0 0 0 6.6 3.466c4.145 0 5.208-2.36 17.063-10.036 32.94 15.102 54.882-20.405 30.904-55.251z"/><path d="m337.733 378.482-6.767-13.582c-4.716-9.467-19.045-2.348-14.322 7.132 7.708 13.071 8.033 22.717 16.435 22.366 24.747-1.037 20.067 22.016-2.211 33.111-10.232 5.1-27.637 7.315-32.2-1.838-2.8-5.611 1.048-14.346 9.345-21.243 7.254-6.029-.2-17.537-8.678-13.307-1.707-2.174-5.074-16.877-14.9-11.984a8 8 0 0 0 -3.6 10.728l6.782 13.617c-19.541 30.454 12.512 57.21 50.38 38.349 37.934-18.896 35.708-60.731-.264-63.349z"/><path d="m102.919 306.342c6.864 4.842 12.376-3.1 25.927-9.908 9.086-5.407.924-19.167-8.181-13.751l-13.045 7.761c-31.9-17.408-56.007 16.993-34.517 53.114 21.383 35.947 63.063 31.565 63.12-4.97l13.073-7.777a8 8 0 0 0 2.786-10.965c-5.612-9.435-16.386 1.093-19.021 2.006-4.836-8.139-17.336-2.509-14.5 6.491 9.384 29.778-17.072 31.637-31.707 7.035-12.339-20.737-4.543-43.578 16.065-29.036z"/><path d="m171.66 124.569c3.839 7.811 4.907 22.906 15.589 18.928a8 8 0 0 0 4.7-10.29c-6.274-13.76-5.6-23.442-13.99-23.971-24.855-1.57-17.2-24.168 5.683-32.7 27.337-10.187 45.8 8.35 20.3 25.357-7.847 5.233-1.648 17.46 7.229 14.147 1.853 3.445 3.476 17.244 13.562 13.486a8 8 0 0 0 4.7-10.289l-5.312-14.254c22.6-28.184-6.335-58.243-46.064-43.44-40.285 15.016-41.495 56.71-6.397 63.026z"/><path d="m391.7 253.2c-18.3-11.628-44.73-2.911-58.924 19.428s-10.859 49.971 7.437 61.6c19.487 12.379 45.708 1.372 58.927-19.428 14.195-22.339 10.86-49.971-7.44-61.6zm-6.066 53.016c-9.463 14.893-25.989 21.4-36.84 14.5-10.849-6.895-11.978-24.62-2.514-39.512s25.989-21.4 36.839-14.5 11.981 24.623 2.517 39.515z"/><path d="m171.785 165.2c-8.927-5.675-17.521 7.823-8.581 13.5 10.849 6.9 11.978 24.62 2.514 39.512-14.795 23.284-43.185 22.977-45.573-1.29-.766-7.778 1.443-16.2 6.219-23.717 5.673-8.927-7.825-17.522-13.5-8.581-19.321 30.4-5.4 66.75 25.6 66.75 43.279.005 67.81-64.255 33.321-86.174z"/><path d="m232 232c10.577 0 10.592-16 0-16-10.577 0-10.592 16 0 16z"/><path d="m208 336c0-10.577-16-10.592-16 0s16 10.592 16 0z"/><path d="m336 88c10.577 0 10.592-16 0-16s-10.592 16 0 16z"/><path d="m136 168c0 10.577 16 10.592 16 0 0-10.577-16-10.592-16 0z"/></g></g></svg>